<svg xmlns="http://www.w3.org/2000/svg" width="1174" height="473" viewBox="0 0 1174 473">
  <defs>
    <linearGradient id="a" x1="50%" x2="50%" y1="0%" y2="100%">
      <stop offset="0%" stop-color="#00AAFF"/>
      <stop offset="100%" stop-color="#14E9FE"/>
    </linearGradient>
  </defs>
  <g fill="url(#a)" fill-rule="evenodd" transform="translate(-8)">
    <circle cx="366.5" cy="233.5" r="66.185"/>
    <circle cx="697" cy="176" r="129"/>
    <circle cx="825.618" cy="412.618" r="53.618"/>
    <circle cx="65.196" cy="47.196" r="24.196" transform="rotate(179 65.196 47.196)"/>
    <polygon points="959.99 89.99 936.478 102.35 940.969 76.17 921.948 57.629 948.234 53.809 959.99 29.99 971.745 53.809 998.032 57.629 979.011 76.17 983.501 102.35" transform="rotate(15 959.99 69.99)"/>
    <polygon points="505.643 160.789 498.177 164.715 499.603 156.401 493.562 150.513 501.91 149.3 505.643 141.735 509.376 149.3 517.724 150.513 511.684 156.401 513.109 164.715" transform="rotate(15 505.643 153.225)"/>
    <polygon points="135.643 426.789 128.177 430.715 129.603 422.401 123.562 416.513 131.91 415.3 135.643 407.735 139.376 415.3 147.724 416.513 141.684 422.401 143.109 430.715" transform="rotate(-166 135.643 419.225)"/>
    <polygon points="81 320 57.489 332.361 61.979 306.18 42.958 287.639 69.244 283.82 81 260 92.756 283.82 119.042 287.639 100.021 306.18 104.511 332.361" transform="rotate(-171 81 300)"/>
    <rect width="66" height="66" x="439.079" y="14.079" transform="rotate(141 472.079 47.079)"/>
    <path d="M939.43516,279.380618 L912.628256,279.380618 L912.628256,302.169025 L989.03047,302.169025 L989.03047,279.380618 L962.223567,279.380618 L962.223567,252.573714 L939.43516,252.573714 L939.43516,279.380618 Z" transform="rotate(-62 950.83 277.371)"/>
    <path d="M203.68899,143.523785 L188.220785,143.523785 L188.220785,156.673223 L232.306632,156.673223 L232.306632,143.523785 L216.838428,143.523785 L216.838428,128.05558 L203.68899,128.05558 L203.68899,143.523785 Z" transform="rotate(35 210.264 142.364)"/>
    <polygon points="496 425 518.825 441.584 510.107 468.416 481.893 468.416 473.175 441.584" transform="rotate(-180 496 449)"/>
    <polygon points="1109.092 47.092 1131.917 63.676 1123.199 90.508 1094.985 90.508 1086.267 63.676" transform="rotate(154 1109.092 71.092)"/>
    <polygon points="32.415 159.415 55.241 175.999 46.522 202.832 18.308 202.832 9.59 175.999" transform="rotate(-155 32.415 183.415)"/>
    <polygon points="1084.415 388.415 1107.241 404.999 1098.522 431.832 1070.308 431.832 1061.59 404.999" transform="rotate(146 1084.415 412.415)"/>
    <polygon points="326.683 27.449 365.551 105.185 287.815 105.185" transform="rotate(-24 326.683 66.317)"/>
    <polygon points="251.159 348.12 304.979 337.065 293.924 390.885 237.065 404.979" transform="rotate(151 271.022 371.022)"/>
    <polygon points="1134.159 189.12 1187.979 178.065 1176.924 231.885 1120.065 245.979" transform="rotate(-66 1154.022 212.022)"/>
  </g>
</svg>
